<svg data-v-423bf9ae="" xmlns="http://www.w3.org/2000/svg" viewBox="0 0 537 90" class="iconLeftSlogan"><!----><!----><!----><g data-v-423bf9ae="" id="6e16ec9e-e94b-4ff2-bc59-6aaa9fba7440" fill="#22C4D6" transform="matrix(5.769230451809602,0,0,5.769230451809602,64.76153238020609,-9.807691327918931)"><path d="M2.49 2.92L0.23 2.92L0.23 1.93L5.79 1.93L5.79 2.92L3.52 2.92L3.52 12.07L2.49 12.07L2.49 2.92ZM7.08 12.10L7.08 1.70L8.05 1.70L8.05 5.95L8.05 5.95Q8.63 5.17 9.33 4.79L9.33 4.79L9.33 4.79Q10.03 4.41 10.85 4.41L10.85 4.41L10.85 4.41Q11.70 4.41 12.35 4.84L12.35 4.84L12.35 4.84Q13.00 5.26 13.30 5.98L13.30 5.98L13.30 5.98Q13.61 6.70 13.61 8.24L13.61 8.24L13.61 12.10L12.65 12.10L12.65 8.52L12.65 8.52Q12.65 7.23 12.54 6.79L12.54 6.79L12.54 6.79Q12.37 6.04 11.89 5.67L11.89 5.67L11.89 5.67Q11.42 5.30 10.66 5.30L10.66 5.30L10.66 5.30Q9.78 5.30 9.09 5.88L9.09 5.88L9.09 5.88Q8.39 6.45 8.18 7.31L8.18 7.31L8.18 7.31Q8.05 7.85 8.05 9.35L8.05 9.35L8.05 12.10L7.08 12.10ZM21.98 9.42L21.98 9.42L22.78 9.85L22.78 9.85Q22.39 10.64 21.87 11.12L21.87 11.12L21.87 11.12Q21.34 11.59 20.69 11.84L20.69 11.84L20.69 11.84Q20.03 12.09 19.20 12.09L19.20 12.09L19.20 12.09Q17.37 12.09 16.34 10.89L16.34 10.89L16.34 10.89Q15.31 9.69 15.31 8.18L15.31 8.18L15.31 8.18Q15.31 6.75 16.18 5.64L16.18 5.64L16.18 5.64Q17.29 4.22 19.15 4.22L19.15 4.22L19.15 4.22Q21.06 4.22 22.21 5.67L22.21 5.67L22.21 5.67Q23.02 6.70 23.03 8.23L23.03 8.23L16.30 8.23L16.30 8.23Q16.32 9.54 17.13 10.38L17.13 10.38L17.13 10.38Q17.94 11.22 19.12 11.22L19.12 11.22L19.12 11.22Q19.69 11.22 20.23 11.02L20.23 11.02L20.23 11.02Q20.77 10.81 21.15 10.49L21.15 10.49L21.15 10.49Q21.53 10.16 21.98 9.42ZM16.40 7.40L21.98 7.40L21.98 7.40Q21.79 6.63 21.42 6.17L21.42 6.17L21.42 6.17Q21.05 5.71 20.44 5.42L20.44 5.42L20.44 5.42Q19.83 5.14 19.16 5.14L19.16 5.14L19.16 5.14Q18.06 5.14 17.27 5.85L17.27 5.85L17.27 5.85Q16.69 6.37 16.40 7.40L16.40 7.40ZM28.21 12.04L24.98 12.04L24.98 1.91L27.08 1.91L27.08 1.91Q29.35 1.91 30.39 2.28L30.39 2.28L30.39 2.28Q31.86 2.79 32.69 4.06L32.69 4.06L32.69 4.06Q33.52 5.34 33.52 7.10L33.52 7.10L33.52 7.10Q33.52 8.62 32.86 9.78L32.86 9.78L32.86 9.78Q32.20 10.94 31.15 11.49L31.15 11.49L31.15 11.49Q30.10 12.04 28.21 12.04L28.21 12.04ZM25.95 2.89L25.95 11.08L27.12 11.08L27.12 11.08Q29.22 11.08 30.04 10.82L30.04 10.82L30.04 10.82Q31.18 10.45 31.83 9.48L31.83 9.48L31.83 9.48Q32.49 8.52 32.49 7.12L32.49 7.12L32.49 7.12Q32.49 5.65 31.78 4.61L31.78 4.61L31.78 4.61Q31.08 3.57 29.80 3.19L29.80 3.19L29.80 3.19Q28.85 2.89 26.67 2.89L26.67 2.89L25.95 2.89ZM41.62 9.42L41.62 9.42L42.43 9.85L42.43 9.85Q42.04 10.64 41.51 11.12L41.51 11.12L41.51 11.12Q40.99 11.59 40.33 11.84L40.33 11.84L40.33 11.84Q39.68 12.09 38.85 12.09L38.85 12.09L38.85 12.09Q37.02 12.09 35.98 10.89L35.98 10.89L35.98 10.89Q34.95 9.69 34.95 8.18L34.95 8.18L34.95 8.18Q34.95 6.75 35.83 5.64L35.83 5.64L35.83 5.64Q36.93 4.22 38.80 4.22L38.80 4.22L38.80 4.22Q40.71 4.22 41.86 5.67L41.86 5.67L41.86 5.67Q42.67 6.70 42.68 8.23L42.68 8.23L35.94 8.23L35.94 8.23Q35.97 9.54 36.78 10.38L36.78 10.38L36.78 10.38Q37.58 11.22 38.77 11.22L38.77 11.22L38.77 11.22Q39.34 11.22 39.88 11.02L39.88 11.02L39.88 11.02Q40.42 10.81 40.80 10.49L40.80 10.49L40.80 10.49Q41.18 10.16 41.62 9.42ZM36.05 7.40L41.62 7.40L41.62 7.40Q41.43 6.63 41.06 6.17L41.06 6.17L41.06 6.17Q40.69 5.71 40.09 5.42L40.09 5.42L40.09 5.42Q39.48 5.14 38.81 5.14L38.81 5.14L38.81 5.14Q37.71 5.14 36.91 5.85L36.91 5.85L36.91 5.85Q36.34 6.37 36.05 7.40L36.05 7.40ZM47.22 12.10L43.76 4.60L44.79 4.60L47.30 10.06L49.79 4.60L50.82 4.60L47.39 12.10L47.22 12.10ZM52.96 12.07L51.98 12.07L53.42 1.93L53.59 1.93L57.71 10.25L61.78 1.93L61.95 1.93L63.41 12.07L62.41 12.07L61.41 4.82L57.83 12.07L57.57 12.07L53.94 4.77L52.96 12.07ZM68.78 4.22L68.78 4.22L68.78 4.22Q70.51 4.22 71.65 5.47L71.65 5.47L71.65 5.47Q72.69 6.62 72.69 8.18L72.69 8.18L72.69 8.18Q72.69 9.75 71.59 10.92L71.59 10.92L71.59 10.92Q70.50 12.09 68.78 12.09L68.78 12.09L68.78 12.09Q67.06 12.09 65.97 10.92L65.97 10.92L65.97 10.92Q64.88 9.75 64.88 8.18L64.88 8.18L64.88 8.18Q64.88 6.62 65.91 5.48L65.91 5.48L65.91 5.48Q67.05 4.22 68.78 4.22ZM68.78 5.16L68.78 5.16L68.78 5.16Q67.59 5.16 66.73 6.05L66.73 6.05L66.73 6.05Q65.86 6.94 65.86 8.20L65.86 8.20L65.86 8.20Q65.86 9.01 66.26 9.72L66.26 9.72L66.26 9.72Q66.65 10.42 67.32 10.80L67.32 10.80L67.32 10.80Q67.99 11.18 68.78 11.18L68.78 11.18L68.78 11.18Q69.59 11.18 70.26 10.80L70.26 10.80L70.26 10.80Q70.92 10.42 71.31 9.72L71.31 9.72L71.31 9.72Q71.70 9.01 71.70 8.20L71.70 8.20L71.70 8.20Q71.70 6.94 70.84 6.05L70.84 6.05L70.84 6.05Q69.98 5.16 68.78 5.16ZM80.77 9.42L80.77 9.42L81.58 9.85L81.58 9.85Q81.19 10.64 80.66 11.12L80.66 11.12L80.66 11.12Q80.14 11.59 79.48 11.84L79.48 11.84L79.48 11.84Q78.83 12.09 78.00 12.09L78.00 12.09L78.00 12.09Q76.17 12.09 75.13 10.89L75.13 10.89L75.13 10.89Q74.10 9.69 74.10 8.18L74.10 8.18L74.10 8.18Q74.10 6.75 74.98 5.64L74.98 5.64L74.98 5.64Q76.08 4.22 77.95 4.22L77.95 4.22L77.95 4.22Q79.86 4.22 81.01 5.67L81.01 5.67L81.01 5.67Q81.82 6.70 81.83 8.23L81.83 8.23L75.09 8.23L75.09 8.23Q75.12 9.54 75.93 10.38L75.93 10.38L75.93 10.38Q76.73 11.22 77.92 11.22L77.92 11.22L77.92 11.22Q78.49 11.22 79.03 11.02L79.03 11.02L79.03 11.02Q79.57 10.81 79.95 10.49L79.95 10.49L79.95 10.49Q80.33 10.16 80.77 9.42ZM75.20 7.40L80.77 7.40L80.77 7.40Q80.58 6.63 80.21 6.17L80.21 6.17L80.21 6.17Q79.84 5.71 79.24 5.42L79.24 5.42L79.24 5.42Q78.63 5.14 77.96 5.14L77.96 5.14L77.96 5.14Q76.86 5.14 76.06 5.85L76.06 5.85L76.06 5.85Q75.49 6.37 75.20 7.40L75.20 7.40Z"></path></g><!----><g data-v-423bf9ae="" id="3e262f91-dc55-4fab-8585-b104d297bfae" transform="matrix(2.8125,0,0,2.8125,-21.194407999515533,0)" stroke="none" fill="#22C4D6"><path d="M18.396 26.495L7.807 15.905 18.432 5.28l.707.707-9.918 9.918 9.882 9.883z"></path><path d="M23.194 1v4.194H19V1h4.194m1-1H18v6.194h6.194V0zM23.194 26.806V31H19v-4.194h4.194m1-1H18V32h6.194v-6.194z"></path></g><!----><g data-v-423bf9ae="" id="efa97f61-fefd-4bb1-a23a-8ce54fb3010a" fill="#22C4D6" transform="matrix(1.80604881339022,0,0,1.80604881339022,65.5827472902489,55.57518197042472)"><path d="M3.96 11.69L0.73 2.80L0.28 2.80L3.99 12.95L6.93 3.79L9.87 12.95L13.58 2.80L13.13 2.80L9.90 11.69L6.93 2.45ZM22.54 7.48L26.88 7.48L26.88 7.08L22.54 7.08L22.54 3.21L27.16 3.21L27.16 2.80L22.12 2.80L22.12 12.60L27.16 12.60L27.16 12.19L22.54 12.19ZM36.54 2.80L36.54 12.60L38.64 12.60C40.77 12.60 41.83 11.69 41.83 9.87C41.83 9.19 41.60 8.62 41.13 8.17C40.65 7.72 40.09 7.41 39.42 7.25C40.66 7.02 41.27 6.30 41.27 5.11C41.27 4.40 41.02 3.84 40.51 3.42C40.00 3.01 39.28 2.80 38.36 2.80ZM36.96 7.08L36.96 3.21L38.36 3.21C39.13 3.21 39.74 3.37 40.19 3.71C40.63 4.05 40.85 4.51 40.85 5.11C40.85 5.60 40.72 5.99 40.45 6.31C40.18 6.62 39.87 6.83 39.52 6.93C39.16 7.03 38.78 7.08 38.36 7.08ZM36.96 7.48L38.64 7.48C39.04 7.48 39.44 7.56 39.84 7.72C40.25 7.88 40.60 8.16 40.91 8.54C41.22 8.92 41.37 9.37 41.37 9.87C41.37 11.42 40.46 12.19 38.64 12.19L36.96 12.19ZM52.23 11.16L50.65 14.69L50.86 14.81L52.65 11.34ZM73.37 2.80L73.37 12.60L73.79 12.60L73.79 2.80ZM83.10 7.70C83.10 6.38 83.51 5.29 84.32 4.41C85.13 3.53 86.16 3.09 87.40 3.09C88.64 3.09 89.67 3.53 90.48 4.41C91.29 5.29 91.70 6.38 91.70 7.70C91.70 9.02 91.29 10.11 90.48 10.99C89.67 11.87 88.64 12.31 87.40 12.31C86.16 12.31 85.13 11.87 84.32 10.99C83.51 10.11 83.10 9.02 83.10 7.70ZM82.68 7.70C82.68 9.16 83.13 10.36 84.02 11.30C84.91 12.24 86.04 12.71 87.40 12.71C88.76 12.71 89.89 12.24 90.78 11.30C91.67 10.36 92.12 9.16 92.12 7.70C92.12 6.24 91.67 5.04 90.78 4.10C89.89 3.16 88.76 2.69 87.40 2.69C86.04 2.69 84.91 3.16 84.02 4.10C83.13 5.04 82.68 6.24 82.68 7.70ZM100.76 9.74L100.38 9.90C101.01 11.77 102.06 12.71 103.53 12.71C104.44 12.71 105.14 12.45 105.60 11.93C106.07 11.41 106.30 10.77 106.30 10.01C106.30 9.66 106.24 9.35 106.13 9.06C106.01 8.78 105.88 8.55 105.73 8.37C105.59 8.19 105.39 8.02 105.13 7.86C104.86 7.70 104.65 7.58 104.49 7.50C104.33 7.43 104.10 7.34 103.82 7.22C103.79 7.21 103.67 7.16 103.47 7.08C103.28 7.01 103.16 6.96 103.11 6.94C103.06 6.91 102.96 6.87 102.79 6.80C102.62 6.73 102.51 6.67 102.46 6.64C102.41 6.60 102.32 6.54 102.19 6.45C102.06 6.37 101.97 6.30 101.92 6.24C101.87 6.18 101.81 6.10 101.72 6.00C101.64 5.90 101.58 5.80 101.55 5.70C101.52 5.61 101.49 5.50 101.46 5.38C101.43 5.25 101.42 5.12 101.42 4.98C101.42 4.41 101.61 3.95 102.01 3.62C102.41 3.29 102.90 3.12 103.49 3.12C104.62 3.12 105.40 3.77 105.84 5.07L106.25 4.90C106.04 4.23 105.70 3.69 105.24 3.29C104.77 2.89 104.19 2.69 103.50 2.69C102.81 2.69 102.21 2.90 101.70 3.33C101.19 3.76 100.94 4.33 100.94 5.04C100.94 5.39 101.01 5.71 101.16 5.99C101.30 6.27 101.52 6.51 101.80 6.71C102.09 6.91 102.34 7.07 102.57 7.17C102.80 7.28 103.10 7.41 103.46 7.55C103.74 7.65 103.93 7.72 104.03 7.77C104.14 7.82 104.31 7.90 104.55 8.02C104.79 8.13 104.97 8.24 105.08 8.34C105.18 8.45 105.31 8.58 105.45 8.75C105.60 8.92 105.70 9.11 105.76 9.32C105.81 9.54 105.84 9.78 105.84 10.05C105.84 10.72 105.65 11.27 105.27 11.68C104.89 12.09 104.33 12.29 103.57 12.29C102.34 12.29 101.40 11.44 100.76 9.74ZM116.63 11.16L115.05 14.69L115.26 14.81L117.05 11.34ZM137.84 2.80L137.84 12.60L138.26 12.60L138.26 8.48L139.94 8.48C140.91 8.48 141.67 8.23 142.25 7.73C142.82 7.22 143.11 6.53 143.11 5.64C143.11 4.76 142.82 4.06 142.25 3.56C141.67 3.05 140.91 2.80 139.94 2.80ZM138.26 3.21L139.94 3.21C140.80 3.21 141.47 3.41 141.95 3.83C142.43 4.24 142.67 4.85 142.67 5.64C142.67 6.44 142.43 7.04 141.95 7.45C141.47 7.87 140.80 8.08 139.94 8.08L138.26 8.08ZM152.00 2.80L152.00 12.60L152.42 12.60L152.42 2.80ZM166.88 2.80L164.29 7.04L161.76 2.80L161.24 2.80L164.02 7.46L160.89 12.60L161.41 12.60L164.28 7.90L167.09 12.60L167.61 12.60L164.54 7.46L167.40 2.80ZM176.57 7.48L180.91 7.48L180.91 7.08L176.57 7.08L176.57 3.21L181.19 3.21L181.19 2.80L176.15 2.80L176.15 12.60L181.19 12.60L181.19 12.19L176.57 12.19ZM190.57 2.80L190.57 12.60L195.05 12.60L195.05 12.19L190.99 12.19L190.99 2.80ZM203.27 9.74L202.89 9.90C203.51 11.77 204.56 12.71 206.04 12.71C206.95 12.71 207.64 12.45 208.11 11.93C208.58 11.41 208.81 10.77 208.81 10.01C208.81 9.66 208.75 9.35 208.63 9.06C208.52 8.78 208.39 8.55 208.24 8.37C208.10 8.19 207.90 8.02 207.63 7.86C207.37 7.70 207.16 7.58 207.00 7.50C206.83 7.43 206.61 7.34 206.33 7.22C206.29 7.21 206.18 7.16 205.98 7.08C205.79 7.01 205.66 6.96 205.62 6.94C205.57 6.91 205.46 6.87 205.30 6.80C205.13 6.73 205.02 6.67 204.97 6.64C204.92 6.60 204.82 6.54 204.69 6.45C204.56 6.37 204.47 6.30 204.43 6.24C204.38 6.18 204.32 6.10 204.23 6.00C204.15 5.90 204.09 5.80 204.06 5.70C204.02 5.61 203.99 5.50 203.97 5.38C203.94 5.25 203.92 5.12 203.92 4.98C203.92 4.41 204.12 3.95 204.52 3.62C204.92 3.29 205.41 3.12 206.00 3.12C207.13 3.12 207.91 3.77 208.35 5.07L208.75 4.90C208.55 4.23 208.21 3.69 207.75 3.29C207.28 2.89 206.70 2.69 206.01 2.69C205.32 2.69 204.72 2.90 204.21 3.33C203.70 3.76 203.45 4.33 203.45 5.04C203.45 5.39 203.52 5.71 203.66 5.99C203.81 6.27 204.02 6.51 204.31 6.71C204.59 6.91 204.85 7.07 205.08 7.17C205.31 7.28 205.60 7.41 205.97 7.55C206.25 7.65 206.44 7.72 206.54 7.77C206.64 7.82 206.82 7.90 207.06 8.02C207.30 8.13 207.48 8.24 207.58 8.34C207.69 8.45 207.82 8.58 207.96 8.75C208.11 8.92 208.21 9.11 208.26 9.32C208.32 9.54 208.35 9.78 208.35 10.05C208.35 10.72 208.16 11.27 207.78 11.68C207.40 12.09 206.84 12.29 206.08 12.29C204.85 12.29 203.91 11.44 203.27 9.74Z"></path></g></svg>