<svg data-v-fde0c5aa="" xmlns="http://www.w3.org/2000/svg" viewBox="0 0 300 300" class="font"><!----><defs data-v-fde0c5aa=""><!----></defs><rect data-v-fde0c5aa="" fill="#0B345A" x="0" y="0" width="300px" height="300px" class="logo-background-square"></rect><defs data-v-fde0c5aa=""><!----></defs><g data-v-fde0c5aa="" id="1b017d24-2434-4aa2-80f8-080a7e8d72f0" fill="#22C4D6" transform="matrix(2.696078481787859,0,0,2.696078481787859,39.37990193793988,131.39705757575047)"><path d="M2.49 2.92L0.23 2.92L0.23 1.93L5.79 1.93L5.79 2.92L3.52 2.92L3.52 12.07L2.49 12.07L2.49 2.92ZM7.08 12.10L7.08 1.70L8.05 1.70L8.05 5.95L8.05 5.95Q8.63 5.17 9.33 4.79L9.33 4.79L9.33 4.79Q10.03 4.41 10.85 4.41L10.85 4.41L10.85 4.41Q11.70 4.41 12.35 4.84L12.35 4.84L12.35 4.84Q13.00 5.26 13.30 5.98L13.30 5.98L13.30 5.98Q13.61 6.70 13.61 8.24L13.61 8.24L13.61 12.10L12.65 12.10L12.65 8.52L12.65 8.52Q12.65 7.23 12.54 6.79L12.54 6.79L12.54 6.79Q12.37 6.04 11.89 5.67L11.89 5.67L11.89 5.67Q11.42 5.30 10.66 5.30L10.66 5.30L10.66 5.30Q9.78 5.30 9.09 5.88L9.09 5.88L9.09 5.88Q8.39 6.45 8.18 7.31L8.18 7.31L8.18 7.31Q8.05 7.85 8.05 9.35L8.05 9.35L8.05 12.10L7.08 12.10ZM21.98 9.42L21.98 9.42L22.78 9.85L22.78 9.85Q22.39 10.64 21.87 11.12L21.87 11.12L21.87 11.12Q21.34 11.59 20.69 11.84L20.69 11.84L20.69 11.84Q20.03 12.09 19.20 12.09L19.20 12.09L19.20 12.09Q17.37 12.09 16.34 10.89L16.34 10.89L16.34 10.89Q15.31 9.69 15.31 8.18L15.31 8.18L15.31 8.18Q15.31 6.75 16.18 5.64L16.18 5.64L16.18 5.64Q17.29 4.22 19.15 4.22L19.15 4.22L19.15 4.22Q21.06 4.22 22.21 5.67L22.21 5.67L22.21 5.67Q23.02 6.70 23.03 8.23L23.03 8.23L16.30 8.23L16.30 8.23Q16.32 9.54 17.13 10.38L17.13 10.38L17.13 10.38Q17.94 11.22 19.12 11.22L19.12 11.22L19.12 11.22Q19.69 11.22 20.23 11.02L20.23 11.02L20.23 11.02Q20.77 10.81 21.15 10.49L21.15 10.49L21.15 10.49Q21.53 10.16 21.98 9.42ZM16.40 7.40L21.98 7.40L21.98 7.40Q21.79 6.63 21.42 6.17L21.42 6.17L21.42 6.17Q21.05 5.71 20.44 5.42L20.44 5.42L20.44 5.42Q19.83 5.14 19.16 5.14L19.16 5.14L19.16 5.14Q18.06 5.14 17.27 5.85L17.27 5.85L17.27 5.85Q16.69 6.37 16.40 7.40L16.40 7.40ZM28.21 12.04L24.98 12.04L24.98 1.91L27.08 1.91L27.08 1.91Q29.35 1.91 30.39 2.28L30.39 2.28L30.39 2.28Q31.86 2.79 32.69 4.06L32.69 4.06L32.69 4.06Q33.52 5.34 33.52 7.10L33.52 7.10L33.52 7.10Q33.52 8.62 32.86 9.78L32.86 9.78L32.86 9.78Q32.20 10.94 31.15 11.49L31.15 11.49L31.15 11.49Q30.10 12.04 28.21 12.04L28.21 12.04ZM25.95 2.89L25.95 11.08L27.12 11.08L27.12 11.08Q29.22 11.08 30.04 10.82L30.04 10.82L30.04 10.82Q31.18 10.45 31.83 9.48L31.83 9.48L31.83 9.48Q32.49 8.52 32.49 7.12L32.49 7.12L32.49 7.12Q32.49 5.65 31.78 4.61L31.78 4.61L31.78 4.61Q31.08 3.57 29.80 3.19L29.80 3.19L29.80 3.19Q28.85 2.89 26.67 2.89L26.67 2.89L25.95 2.89ZM41.62 9.42L41.62 9.42L42.43 9.85L42.43 9.85Q42.04 10.64 41.51 11.12L41.51 11.12L41.51 11.12Q40.99 11.59 40.33 11.84L40.33 11.84L40.33 11.84Q39.68 12.09 38.85 12.09L38.85 12.09L38.85 12.09Q37.02 12.09 35.98 10.89L35.98 10.89L35.98 10.89Q34.95 9.69 34.95 8.18L34.95 8.18L34.95 8.18Q34.95 6.75 35.83 5.64L35.83 5.64L35.83 5.64Q36.93 4.22 38.80 4.22L38.80 4.22L38.80 4.22Q40.71 4.22 41.86 5.67L41.86 5.67L41.86 5.67Q42.67 6.70 42.68 8.23L42.68 8.23L35.94 8.23L35.94 8.23Q35.97 9.54 36.78 10.38L36.78 10.38L36.78 10.38Q37.58 11.22 38.77 11.22L38.77 11.22L38.77 11.22Q39.34 11.22 39.88 11.02L39.88 11.02L39.88 11.02Q40.42 10.81 40.80 10.49L40.80 10.49L40.80 10.49Q41.18 10.16 41.62 9.42ZM36.05 7.40L41.62 7.40L41.62 7.40Q41.43 6.63 41.06 6.17L41.06 6.17L41.06 6.17Q40.69 5.71 40.09 5.42L40.09 5.42L40.09 5.42Q39.48 5.14 38.81 5.14L38.81 5.14L38.81 5.14Q37.71 5.14 36.91 5.85L36.91 5.85L36.91 5.85Q36.34 6.37 36.05 7.40L36.05 7.40ZM47.22 12.10L43.76 4.60L44.79 4.60L47.30 10.06L49.79 4.60L50.82 4.60L47.39 12.10L47.22 12.10ZM52.96 12.07L51.98 12.07L53.42 1.93L53.59 1.93L57.71 10.25L61.78 1.93L61.95 1.93L63.41 12.07L62.41 12.07L61.41 4.82L57.83 12.07L57.57 12.07L53.94 4.77L52.96 12.07ZM68.78 4.22L68.78 4.22L68.78 4.22Q70.51 4.22 71.65 5.47L71.65 5.47L71.65 5.47Q72.69 6.62 72.69 8.18L72.69 8.18L72.69 8.18Q72.69 9.75 71.59 10.92L71.59 10.92L71.59 10.92Q70.50 12.09 68.78 12.09L68.78 12.09L68.78 12.09Q67.06 12.09 65.97 10.92L65.97 10.92L65.97 10.92Q64.88 9.75 64.88 8.18L64.88 8.18L64.88 8.18Q64.88 6.62 65.91 5.48L65.91 5.48L65.91 5.48Q67.05 4.22 68.78 4.22ZM68.78 5.16L68.78 5.16L68.78 5.16Q67.59 5.16 66.73 6.05L66.73 6.05L66.73 6.05Q65.86 6.94 65.86 8.20L65.86 8.20L65.86 8.20Q65.86 9.01 66.26 9.72L66.26 9.72L66.26 9.72Q66.65 10.42 67.32 10.80L67.32 10.80L67.32 10.80Q67.99 11.18 68.78 11.18L68.78 11.18L68.78 11.18Q69.59 11.18 70.26 10.80L70.26 10.80L70.26 10.80Q70.92 10.42 71.31 9.72L71.31 9.72L71.31 9.72Q71.70 9.01 71.70 8.20L71.70 8.20L71.70 8.20Q71.70 6.94 70.84 6.05L70.84 6.05L70.84 6.05Q69.98 5.16 68.78 5.16ZM80.77 9.42L80.77 9.42L81.58 9.85L81.58 9.85Q81.19 10.64 80.66 11.12L80.66 11.12L80.66 11.12Q80.14 11.59 79.48 11.84L79.48 11.84L79.48 11.84Q78.83 12.09 78.00 12.09L78.00 12.09L78.00 12.09Q76.17 12.09 75.13 10.89L75.13 10.89L75.13 10.89Q74.10 9.69 74.10 8.18L74.10 8.18L74.10 8.18Q74.10 6.75 74.98 5.64L74.98 5.64L74.98 5.64Q76.08 4.22 77.95 4.22L77.95 4.22L77.95 4.22Q79.86 4.22 81.01 5.67L81.01 5.67L81.01 5.67Q81.82 6.70 81.83 8.23L81.83 8.23L75.09 8.23L75.09 8.23Q75.12 9.54 75.93 10.38L75.93 10.38L75.93 10.38Q76.73 11.22 77.92 11.22L77.92 11.22L77.92 11.22Q78.49 11.22 79.03 11.02L79.03 11.02L79.03 11.02Q79.57 10.81 79.95 10.49L79.95 10.49L79.95 10.49Q80.33 10.16 80.77 9.42ZM75.20 7.40L80.77 7.40L80.77 7.40Q80.58 6.63 80.21 6.17L80.21 6.17L80.21 6.17Q79.84 5.71 79.24 5.42L79.24 5.42L79.24 5.42Q78.63 5.14 77.96 5.14L77.96 5.14L77.96 5.14Q76.86 5.14 76.06 5.85L76.06 5.85L76.06 5.85Q75.49 6.37 75.20 7.40L75.20 7.40Z"></path></g><!----><!----></svg>